<svg width="48" height="48" viewBox="0 0 48 48" fill="none" xmlns="http://www.w3.org/2000/svg">
  <!-- Gold Gradient Definition -->
  <defs>
    <linearGradient id="goldGradient" x1="0%" y1="0%" x2="100%" y2="100%">
      <stop offset="0%" style="stop-color:#FFD700;stop-opacity:1" />
      <stop offset="25%" style="stop-color:#FFA500;stop-opacity:1" />
      <stop offset="50%" style="stop-color:#FF8C00;stop-opacity:1" />
      <stop offset="75%" style="stop-color:#DAA520;stop-opacity:1" />
      <stop offset="100%" style="stop-color:#B8860B;stop-opacity:1" />
    </linearGradient>
    <linearGradient id="goldHighlight" x1="0%" y1="0%" x2="0%" y2="100%">
      <stop offset="0%" style="stop-color:#FFFF99;stop-opacity:0.8" />
      <stop offset="100%" style="stop-color:#FFD700;stop-opacity:0.2" />
    </linearGradient>
  </defs>
  
  <!-- Scale Base/Platform -->
  <rect x="8" y="32" width="32" height="4" rx="2" fill="url(#goldGradient)" />
  <rect x="8" y="32" width="32" height="2" rx="1" fill="url(#goldHighlight)" />
  
  <!-- Scale Center Post -->
  <rect x="22" y="20" width="4" height="16" rx="2" fill="url(#goldGradient)" />
  <rect x="22" y="20" width="2" height="16" rx="1" fill="url(#goldHighlight)" />
  
  <!-- Scale Beam -->
  <rect x="6" y="18" width="36" height="3" rx="1.5" fill="url(#goldGradient)" />
  <rect x="6" y="18" width="36" height="1.5" rx="0.75" fill="url(#goldHighlight)" />
  
  <!-- Left Scale Pan -->
  <ellipse cx="12" cy="14" rx="8" ry="2" fill="url(#goldGradient)" />
  <ellipse cx="12" cy="13.5" rx="8" ry="1" fill="url(#goldHighlight)" />
  
  <!-- Left Scale Pan Chains -->
  <rect x="11.5" y="12" width="1" height="6" fill="url(#goldGradient)" />
  
  <!-- Right Scale Pan -->
  <ellipse cx="36" cy="14" rx="8" ry="2" fill="url(#goldGradient)" />
  <ellipse cx="36" cy="13.5" rx="8" ry="1" fill="url(#goldHighlight)" />
  
  <!-- Right Scale Pan Chains -->
  <rect x="35.5" y="12" width="1" height="6" fill="url(#goldGradient)" />
  
  <!-- Justice Symbol Elements -->
  <!-- Small decorative elements on the pans -->
  <circle cx="12" cy="12" r="1" fill="#FFF8DC" opacity="0.8" />
  <circle cx="36" cy="12" r="1" fill="#FFF8DC" opacity="0.8" />
  
  <!-- Shadow/Depth Effect -->
  <ellipse cx="24" cy="38" rx="16" ry="2" fill="#B8860B" opacity="0.3" />
</svg>